<mxfile modified="2023-01-18T14:22:28.954Z" host="app.diagrams.net" agent="5.0 (Windows NT 10.0; Win64; x64) AppleWebKit/537.36 (KHTML, like Gecko) Chrome/109.0.0.0 Safari/537.36" etag="Y7KJ1vduo8MfDj1iSUqz" version="20.8.4" type="github">
  <diagram id="b4Qg0ncD_ZD2A_eq-Xj0" name="第 1 页">
    <mxGraphModel dx="1434" dy="764" grid="1" gridSize="10" guides="1" tooltips="1" connect="1" arrows="1" fold="1" page="1" pageScale="1" pageWidth="827" pageHeight="1169" math="0" shadow="0">
      <root>
        <mxCell id="0" />
        <mxCell id="1" parent="0" />
        <mxCell id="6WchJnl5gLfdVQhoNDnj-1" value="" style="rounded=1;whiteSpace=wrap;html=1;" parent="1" vertex="1">
          <mxGeometry x="100" y="210" width="110" height="60" as="geometry" />
        </mxCell>
        <mxCell id="RqHJPL9ZLUEo_PTZAM0g-1" value="" style="curved=1;endArrow=classic;html=1;rounded=0;" edge="1" parent="1">
          <mxGeometry width="50" height="50" relative="1" as="geometry">
            <mxPoint x="300" y="440" as="sourcePoint" />
            <mxPoint x="500" y="370" as="targetPoint" />
            <Array as="points">
              <mxPoint x="440" y="420" />
              <mxPoint x="390" y="360" />
              <mxPoint x="390" y="370" />
            </Array>
          </mxGeometry>
        </mxCell>
        <mxCell id="RqHJPL9ZLUEo_PTZAM0g-2" value="sub1_" style="whiteSpace=wrap;html=1;rounded=1;arcSize=50;align=center;verticalAlign=middle;strokeWidth=1;autosize=1;spacing=4;treeFolding=1;treeMoving=1;newEdgeStyle={&quot;edgeStyle&quot;:&quot;entityRelationEdgeStyle&quot;,&quot;startArrow&quot;:&quot;none&quot;,&quot;endArrow&quot;:&quot;none&quot;,&quot;segment&quot;:10,&quot;curved&quot;:1,&quot;sourcePerimeterSpacing&quot;:0,&quot;targetPerimeterSpacing&quot;:0};" vertex="1" collapsed="1" parent="1">
          <mxGeometry x="300" y="80" width="80" height="30" as="geometry" />
        </mxCell>
        <mxCell id="RqHJPL9ZLUEo_PTZAM0g-3" value="" style="edgeStyle=entityRelationEdgeStyle;startArrow=none;endArrow=none;segment=10;curved=1;sourcePerimeterSpacing=0;targetPerimeterSpacing=0;rounded=0;exitX=1;exitY=0.5;exitDx=0;exitDy=0;" edge="1" target="RqHJPL9ZLUEo_PTZAM0g-2" parent="1" source="6WchJnl5gLfdVQhoNDnj-1">
          <mxGeometry relative="1" as="geometry">
            <mxPoint x="190" y="92" as="sourcePoint" />
          </mxGeometry>
        </mxCell>
        <UserObject label="Organization" treeRoot="1" id="RqHJPL9ZLUEo_PTZAM0g-4">
          <mxCell style="whiteSpace=wrap;html=1;align=center;treeFolding=1;treeMoving=1;newEdgeStyle={&quot;edgeStyle&quot;:&quot;elbowEdgeStyle&quot;,&quot;startArrow&quot;:&quot;none&quot;,&quot;endArrow&quot;:&quot;none&quot;};" vertex="1" parent="1">
            <mxGeometry x="50" y="50" width="120" height="60" as="geometry" />
          </mxCell>
        </UserObject>
        <mxCell id="RqHJPL9ZLUEo_PTZAM0g-5" value="Division" style="whiteSpace=wrap;html=1;align=center;verticalAlign=middle;treeFolding=1;treeMoving=1;newEdgeStyle={&quot;edgeStyle&quot;:&quot;elbowEdgeStyle&quot;,&quot;startArrow&quot;:&quot;none&quot;,&quot;endArrow&quot;:&quot;none&quot;};" vertex="1" parent="1">
          <mxGeometry x="570" y="260" width="100" height="60" as="geometry" />
        </mxCell>
        <mxCell id="RqHJPL9ZLUEo_PTZAM0g-6" value="" style="edgeStyle=elbowEdgeStyle;elbow=vertical;sourcePerimeterSpacing=0;targetPerimeterSpacing=0;startArrow=none;endArrow=none;rounded=0;curved=0;" edge="1" target="RqHJPL9ZLUEo_PTZAM0g-5" parent="1">
          <mxGeometry relative="1" as="geometry">
            <mxPoint x="650" y="180" as="sourcePoint" />
          </mxGeometry>
        </mxCell>
      </root>
    </mxGraphModel>
  </diagram>
</mxfile>
